<svg xmlns="http://www.w3.org/2000/svg" viewBox="0 0 16 16"><defs><style>.cls-1,.cls-2{fill:none;stroke:#545b64;stroke-width:2px;}.cls-1{stroke-linejoin:round;}.cls-2{stroke-miterlimit:10;}</style></defs><title>bug</title><g id="icons"><path class="cls-1" d="M5,5h6a1,1,0,0,1,1,1v5.5A3.5,3.5,0,0,1,8.5,15h-1A3.5,3.5,0,0,1,4,11.5V6A1,1,0,0,1,5,5Z"/><path class="cls-1" d="M5,5a3,3,0,0,1,6,0"/><line class="cls-2" x1="12" y1="9" x2="15" y2="9"/><line class="cls-2" x1="1" y1="9" x2="4" y2="9"/><polyline class="cls-2" points="12 12 14 12 15 14"/><polyline class="cls-2" points="4 12 2 12 1 14"/><polyline class="cls-2" points="12 6 14 6 15 4"/><polyline class="cls-2" points="4 6 2 6 1 4"/></g></svg>