<svg xmlns="http://www.w3.org/2000/svg" viewBox="0 0 16 16"><defs><style>.cls-1,.cls-2{fill:none;stroke:#545b64;stroke-width:2px;}.cls-1{stroke-linejoin:round;}.cls-2{stroke-miterlimit:10;}</style></defs><title>call</title><g id="icons"><path class="cls-1" d="M9,2a5,5,0,0,1,5,5"/><path class="cls-2" d="M7.93577,13.09934a3.44974,3.44974,0,0,0,4.86438,0l1.00606-1.00605a.99413.99413,0,0,0,.03418-1.38l-1.5288-1.5288a.9907.9907,0,0,0-1.31731.0969l-.1452.14519a1.4284,1.4284,0,0,1-2.01416,0L6.57345,7.16508a1.4284,1.4284,0,0,1,0-2.01416l.14519-.1452a.9907.9907,0,0,0,.0969-1.31731l-1.5288-1.5288a.99413.99413,0,0,0-1.38.03418L2.90066,3.19985a3.44974,3.44974,0,0,0,0,4.86438Z"/></g></svg>