<?xml version="1.0" encoding="utf-8"?>
<!-- Generator: Adobe Illustrator 23.0.1, SVG Export Plug-In . SVG Version: 6.00 Build 0)  -->
<svg version="1.1" xmlns="http://www.w3.org/2000/svg" xmlns:xlink="http://www.w3.org/1999/xlink" x="0px" y="0px"
	 viewBox="0 0 16 16" style="enable-background:new 0 0 16 16;" xml:space="preserve">
<style type="text/css">
	.st0{fill:none;stroke:#545B64;stroke-width:2;stroke-linejoin:round;stroke-miterlimit:10;}
	.st1{fill:#545B64;stroke:#545B64;stroke-width:2;stroke-linejoin:round;stroke-miterlimit:10;}
	.st2{fill:none;stroke:#545B64;stroke-width:2;stroke-miterlimit:10;}
	.st3{fill:none;stroke:#545B64;stroke-width:2;stroke-linecap:square;stroke-miterlimit:10;}
	.st4{fill:none;stroke:#545B64;stroke-width:2;stroke-linecap:round;stroke-linejoin:round;stroke-miterlimit:10;}
	.st5{fill:none;stroke:#545B64;stroke-width:2;stroke-linecap:round;stroke-miterlimit:10;}
	.st6{fill:#545B64;}
</style>
<g id="grid_x5F_locked">
</g>
<g id="icon">
	<g>
		<path class="st6" d="M8,5c0.6,0,1,0.4,1,1c0,0.1-0.3,0.4-0.5,0.7C8,7.1,7.4,7.7,7.1,8.7C7,8.8,7,8.9,7,9v1h2V9.2
			c0.2-0.4,0.5-0.7,0.9-1.1C10.4,7.6,11,7,11,6c0-1.7-1.3-3-3-3S5,4.3,5,6h2C7,5.4,7.4,5,8,5z"/>
		<rect x="7" y="11" class="st6" width="2" height="2"/>
		<path class="st6" d="M15,0H1C0.4,0,0,0.4,0,1v14c0,0.6,0.4,1,1,1h14c0.6,0,1-0.4,1-1V1C16,0.4,15.6,0,15,0z M14,14H2V2h12V14z"/>
	</g>
</g>
</svg>
