<?xml version="1.0" encoding="UTF-8" standalone="no"?>
<!-- Created with Inkscape (http://www.inkscape.org/) -->

<svg
   version="1.1"
   id="svg4674"
   xml:space="preserve"
   width="682.66669"
   height="682.66669"
   viewBox="0 0 682.66669 682.66669"
   xmlns="http://www.w3.org/2000/svg"
   xmlns:svg="http://www.w3.org/2000/svg"><defs
     id="defs4678"><clipPath
       clipPathUnits="userSpaceOnUse"
       id="clipPath4688"><path
         d="M 0,512 H 512 V 0 H 0 Z"
         id="path4686" /></clipPath></defs><g
     id="g4680"
     transform="matrix(1.3333333,0,0,-1.3333333,0,682.66667)"><g
       id="g4682"><g
         id="g4684"
         clip-path="url(#clipPath4688)"><g
           id="g4690"
           transform="translate(219.4205,201.9745)"><path
             d="m 0,0 -38.936,-38.936 c -10.935,-10.935 -28.663,-10.935 -39.598,0 v 0 c -10.935,10.935 -10.935,28.663 0,39.598 l 27.435,27.435 z"
             style="fill:lime;fill-opacity:0;fill-rule:nonzero;stroke:none"
             id="path4692" /></g><g
           id="g4694"
           transform="translate(117.5743,303.8206)"><path
             d="m 0,0 -38.936,-38.936 c -10.935,-10.935 -28.663,-10.935 -39.598,0 v 0 c -10.935,10.935 -10.935,28.663 0,39.598 l 27.435,27.435 c 34.028,34.028 80.18,53.145 128.303,53.145 h 0.001 c 66.713,0 128.046,-36.609 159.709,-95.33 l 29.512,-54.73 -39.9,-150.984 z"
             style="fill:lime;fill-opacity:0;fill-rule:nonzero;stroke:none"
             id="path4696" /></g><g
           id="g4698"
           transform="translate(433.343,30.7052)"><path
             d="M 0,0 -77.274,20.706 C -87.943,23.564 -94.275,34.531 -91.416,45.2 l 43.481,162.276 c 2.859,10.669 13.826,17.001 24.495,14.142 l 77.274,-20.705 c 10.67,-2.859 17.001,-13.826 14.143,-24.495 L 24.495,14.142 C 21.636,3.473 10.669,-2.859 0,0"
             style="fill:#91def5;fill-opacity:0;fill-rule:nonzero;stroke:none"
             id="path4700" /></g><g
           id="g4702"
           transform="translate(196.4108,178.9648)"><path
             d="m 0,0 -15.926,-15.926 c -10.935,-10.935 -28.664,-10.935 -39.598,0 v 0 c -10.935,10.934 -10.935,28.663 0,39.598 l 14.881,14.881"
             style="fill:none;stroke:#000000;stroke-width:20;stroke-linecap:round;stroke-linejoin:round;stroke-miterlimit:10;stroke-dasharray:none;stroke-opacity:1"
             id="path4704" /></g><g
           id="g4706"
           transform="translate(294.1853,355.4101)"><path
             d="m 0,0 c 24.817,-16.25 45.711,-38.616 60.303,-65.677 l 29.512,-54.731"
             style="fill:none;stroke:#000000;stroke-width:20;stroke-linecap:round;stroke-linejoin:round;stroke-miterlimit:10;stroke-dasharray:none;stroke-opacity:1"
             id="path4708" /></g><g
           id="g4710"
           transform="translate(117.5743,303.8206)"><path
             d="m 0,0 -38.936,-38.936 c -10.935,-10.935 -28.663,-10.935 -39.598,0 v 0 c -10.935,10.935 -10.935,28.663 0,39.598 l 27.435,27.435 c 34.028,34.028 80.18,53.145 128.303,53.145 h 0.001 c 1.2,0 2.399,-0.012 3.596,-0.035"
             style="fill:none;stroke:#000000;stroke-width:20;stroke-linecap:round;stroke-linejoin:round;stroke-miterlimit:10;stroke-dasharray:none;stroke-opacity:1"
             id="path4712" /></g><g
           id="g4714"
           transform="translate(357.9626,419.7559)"><path
             d="m 0,0 -62.225,62.225 -236.899,-236.898 62.225,-62.226 z"
             style="fill:#ffcb7c;fill-opacity:0;fill-rule:nonzero;stroke:none"
             id="path4716" /></g><g
           id="g4718"
           transform="translate(10,134.0187)"><path
             d="M 0,0 48.839,111.064 111.064,48.839 Z"
             style="fill:#98a1b3;fill-opacity:0;fill-rule:nonzero;stroke:none"
             id="path4720" /></g><g
           id="g4722"
           transform="translate(204.8533,266.6467)"><path
             d="m 0,0 153.109,153.109 -62.225,62.226 -236.899,-236.899 -48.838,-111.064 111.064,48.839 36.164,36.164"
             style="fill:none;stroke:#000000;stroke-width:20;stroke-linecap:round;stroke-linejoin:round;stroke-miterlimit:10;stroke-dasharray:none;stroke-opacity:1"
             id="path4724" /></g><g
           id="g4726"
           transform="translate(322.3296,446.3483)"><path
             d="M 0,0 -228.83,-228.83"
             style="fill:none;stroke:#000000;stroke-width:20;stroke-linecap:round;stroke-linejoin:round;stroke-miterlimit:10;stroke-dasharray:none;stroke-opacity:1"
             id="path4728" /></g><g
           id="g4730"
           transform="translate(467.6672,81.531)"><path
             d="m 0,0 -9.829,-36.684 c -2.859,-10.669 -13.826,-17.001 -24.495,-14.142 l -77.274,20.706 c -10.67,2.859 -17.001,13.825 -14.142,24.495 l 43.481,162.275 c 2.859,10.669 13.826,17.001 24.495,14.142 L 19.51,150.087 c 10.669,-2.859 17.001,-13.826 14.142,-24.495 L 23.298,86.95"
             style="fill:none;stroke:#000000;stroke-width:20;stroke-linecap:round;stroke-linejoin:round;stroke-miterlimit:10;stroke-dasharray:none;stroke-opacity:1"
             id="path4732" /></g><g
           id="g4734"
           transform="translate(256.4655,213.4842)"><path
             d="m 0,0 -60.583,60.583 c -12.497,12.497 -32.758,12.497 -45.255,0 v 0 c -12.497,-12.497 -12.497,-32.758 0,-45.255 l 60.583,-60.583 v 0 c 21.916,-51.09 72.162,-84.21 127.754,-84.21 h 5.136 z"
             style="fill:lime;fill-opacity:0;fill-rule:nonzero;stroke:none"
             id="path4736" /></g><g
           id="g4738"
           transform="translate(256.4655,213.4842)"><path
             d="m 0,0 -60.583,60.583 c -12.497,12.497 -32.758,12.497 -45.255,0 v 0 c -12.497,-12.497 -12.497,-32.758 0,-45.255 l 60.583,-60.583 v 0 c 21.916,-51.09 72.162,-84.21 127.754,-84.21 h 5.136"
             style="fill:none;stroke:#000000;stroke-width:20;stroke-linecap:round;stroke-linejoin:round;stroke-miterlimit:10;stroke-dasharray:none;stroke-opacity:1"
             id="path4740" /></g><g
           id="g4742"
           transform="translate(479.3159,125.0047)"><path
             d="M 0,0 V 0"
             style="fill:none;stroke:#000000;stroke-width:20;stroke-linecap:round;stroke-linejoin:round;stroke-miterlimit:10;stroke-dasharray:none;stroke-opacity:1"
             id="path4744" /></g><g
           id="g4746"
           transform="translate(58.8386,245.0827)"><path
             d="M 0,0 62.225,-62.225"
             style="fill:none;stroke:#000000;stroke-width:20;stroke-linecap:round;stroke-linejoin:round;stroke-miterlimit:10;stroke-dasharray:none;stroke-opacity:1"
             id="path4748" /></g></g></g></g></svg>
